<svg xmlns="http://www.w3.org/2000/svg" viewBox="0 0 192 48" width="192" height="48" fill="none">
  <!-- Icon: 44×44 rounded square -->
  <rect x="2" y="2" width="44" height="44" rx="11" fill="#4f46e5"/>
  <!-- Chat bubble + arrow icon (24×24 paths, centered in 44×44 at offset 12,12) -->
  <g transform="translate(12,12)">
    <path d="M4 7c0-.6.4-1 1-1h8a5 5 0 0 1 5 5 5 5 0 0 1-5 5H8l-4 3V7Z" fill="white" fill-opacity="0.3"/>
    <path d="M4 7c0-.6.4-1 1-1h8a5 5 0 0 1 5 5 5 5 0 0 1-5 5H8" stroke="white" stroke-width="2" stroke-linecap="round" stroke-linejoin="round"/>
    <path d="m14 9 3 2-3 2" stroke="white" stroke-width="2" stroke-linecap="round" stroke-linejoin="round"/>
  </g>
  <!-- Wordmark -->
  <text x="58" y="31" font-family="Inter, ui-sans-serif, system-ui, -apple-system, sans-serif" font-size="20" font-weight="700" letter-spacing="-0.4" fill="#111827">ReachFlow</text>
</svg>
